<svg xmlns="http://www.w3.org/2000/svg" width="1201" height="573"><defs><filter id="a" x="1167" y="1758" width="126" height="109" filterUnits="userSpaceOnUse"><feOffset result="offset" dy="5" in="SourceAlpha"/><feGaussianBlur result="blur" stdDeviation="6.708"/><feFlood result="flood" flood-color="#97afe3" flood-opacity=".1"/><feComposite result="composite" operator="in" in2="blur"/><feBlend result="blend" in="SourceGraphic"/></filter><filter id="b" x="1231" y="1775" width="141" height="115" filterUnits="userSpaceOnUse"><feOffset result="offset" dy="5" in="SourceAlpha"/><feGaussianBlur result="blur" stdDeviation="6.708"/><feFlood result="flood" flood-color="#97afe3" flood-opacity=".1"/><feComposite result="composite" operator="in" in2="blur"/><feBlend result="blend" in="SourceGraphic"/></filter><filter id="c" x="1179" y="1755" width="168" height="128" filterUnits="userSpaceOnUse"><feOffset result="offset" dy="5" in="SourceAlpha"/><feGaussianBlur result="blur" stdDeviation="6.708"/><feFlood result="flood" flood-color="#97afe3" flood-opacity=".1"/><feComposite result="composite" operator="in" in2="blur"/><feBlend result="blend" in="SourceGraphic"/></filter><filter id="d" x="1252" y="1739" width="120" height="105" filterUnits="userSpaceOnUse"><feOffset result="offset" dy="5" in="SourceAlpha"/><feGaussianBlur result="blur" stdDeviation="6.708"/><feFlood result="flood" flood-color="#97afe3" flood-opacity=".1"/><feComposite result="composite" operator="in" in2="blur"/><feBlend result="blend" in="SourceGraphic"/></filter><filter id="e" x="118" y="2170" width="126" height="108" filterUnits="userSpaceOnUse"><feOffset result="offset" dy="5" in="SourceAlpha"/><feGaussianBlur result="blur" stdDeviation="6.708"/><feFlood result="flood" flood-color="#97afe3" flood-opacity=".1"/><feComposite result="composite" operator="in" in2="blur"/><feBlend result="blend" in="SourceGraphic"/></filter><filter id="f" x="111" y="2179" width="170" height="130" filterUnits="userSpaceOnUse"><feOffset result="offset" dy="5" in="SourceAlpha"/><feGaussianBlur result="blur" stdDeviation="6.708"/><feFlood result="flood" flood-color="#97afe3" flood-opacity=".1"/><feComposite result="composite" operator="in" in2="blur"/><feBlend result="blend" in="SourceGraphic"/></filter><filter id="g" x="82" y="2186" width="133" height="111" filterUnits="userSpaceOnUse"><feOffset result="offset" dy="5" in="SourceAlpha"/><feGaussianBlur result="blur" stdDeviation="6.708"/><feFlood result="flood" flood-color="#97afe3" flood-opacity=".1"/><feComposite result="composite" operator="in" in2="blur"/><feBlend result="blend" in="SourceGraphic"/></filter><filter id="h" x="214" y="1677" width="111" height="100" filterUnits="userSpaceOnUse"><feOffset result="offset" dy="5" in="SourceAlpha"/><feGaussianBlur result="blur" stdDeviation="6.708"/><feFlood result="flood" flood-color="#97afe3" flood-opacity=".1"/><feComposite result="composite" operator="in" in2="blur"/><feBlend result="blend" in="SourceGraphic"/></filter><filter id="i" x="181" y="1679" width="136" height="113" filterUnits="userSpaceOnUse"><feOffset result="offset" dy="5" in="SourceAlpha"/><feGaussianBlur result="blur" stdDeviation="6.708"/><feFlood result="flood" flood-color="#97afe3" flood-opacity=".1"/><feComposite result="composite" operator="in" in2="blur"/><feBlend result="blend" in="SourceGraphic"/></filter><filter id="j" x="165" y="2192" width="120" height="105" filterUnits="userSpaceOnUse"><feOffset result="offset" dy="5" in="SourceAlpha"/><feGaussianBlur result="blur" stdDeviation="6.708"/><feFlood result="flood" flood-color="#97afe3" flood-opacity=".1"/><feComposite result="composite" operator="in" in2="blur"/><feBlend result="blend" in="SourceGraphic"/></filter></defs><g fill-rule="evenodd"><path d="M1211 1816.39a18.379 18.379 0 1136.75 0H1211z" transform="translate(-126.5 -1706.5)" filter="url(#a)" fill="#eef3ff"/><path data-name="Ellipse" d="M1275.84 1840a25.583 25.583 0 1151.16 0h-51.16z" transform="translate(-126.5 -1706.5)" filter="url(#b)" fill="#e1eaff"/><path data-name="Ellipse" d="M1223.97 1833a38.905 38.905 0 1177.81 0h-77.81z" transform="translate(-126.5 -1706.5)" filter="url(#c)" fill="#d5e0fb"/><path data-name="Ellipse" d="M1296 1794a15.508 15.508 0 1131 0h-31z" transform="translate(-126.5 -1706.5)" filter="url(#d)" fill="#ecf1fc"/></g><g data-name="clouds" fill-rule="evenodd"><path data-name="Ellipse" d="M162 2227.78a18.377 18.377 0 1136.745 0H162z" transform="translate(-126.5 -1706.5)" filter="url(#e)" fill="#eef3ff"/><path data-name="Ellipse" d="M155 2259c0-22.64 18.132-41 40.5-41s40.5 18.36 40.5 41h-81z" transform="translate(-126.5 -1706.5)" filter="url(#f)" fill="#e1eaff"/><path data-name="Ellipse" d="M126 2247a22 22 0 0144 0h-44z" transform="translate(-126.5 -1706.5)" filter="url(#g)" fill="#d5e0fb"/><path data-name="Ellipse" d="M258.391 1726.89a10.529 10.529 0 1121.045 0h-21.045z" transform="translate(-126.5 -1706.5)" filter="url(#h)" fill="#eef3ff"/><path data-name="Ellipse" d="M225 1742c0-13.13 10.385-23.78 23.195-23.78s23.2 10.65 23.2 23.78H225z" transform="translate(-126.5 -1706.5)" filter="url(#i)" fill="#e1eaff"/><path data-name="Ellipse" d="M209 2247a15.508 15.508 0 1131 0h-31z" transform="translate(-126.5 -1706.5)" filter="url(#j)" fill="#ecf1fc"/></g></svg>