<svg id="hero_image" data-name="hero image" xmlns="http://www.w3.org/2000/svg" xmlns:xlink="http://www.w3.org/1999/xlink" width="1440" height="581"><defs><filter id="filter" x="1340" y="448" width="145" height="144" filterUnits="userSpaceOnUse"><feOffset result="offset" dy="5" in="SourceAlpha"/><feGaussianBlur result="blur" stdDeviation="6.708"/><feFlood result="flood" flood-color="#97afe3" flood-opacity=".1"/><feComposite result="composite" operator="in" in2="blur"/><feBlend result="blend" in="SourceGraphic"/></filter><filter id="filter-2" x="903" y="334" width="44" height="44" filterUnits="userSpaceOnUse"><feOffset result="offset" in="SourceAlpha"/><feGaussianBlur result="blur" stdDeviation="3.873"/><feFlood result="flood" flood-color="#5283ff" flood-opacity=".25"/><feComposite result="composite" operator="in" in2="blur"/><feBlend result="blend" in="SourceGraphic"/></filter><filter id="filter-3" x="1311" y="220" width="44" height="44" filterUnits="userSpaceOnUse"><feOffset result="offset" in="SourceAlpha"/><feGaussianBlur result="blur" stdDeviation="3.873"/><feFlood result="flood" flood-color="#5283ff" flood-opacity=".25"/><feComposite result="composite" operator="in" in2="blur"/><feBlend result="blend" in="SourceGraphic"/></filter><filter id="filter-4" x="86" y="505" width="44" height="44" filterUnits="userSpaceOnUse"><feOffset result="offset" in="SourceAlpha"/><feGaussianBlur result="blur" stdDeviation="3.873"/><feFlood result="flood" flood-color="#5283ff" flood-opacity=".25"/><feComposite result="composite" operator="in" in2="blur"/><feBlend result="blend" in="SourceGraphic"/></filter><filter id="filter-5" x="209" y="439" width="113" height="102" filterUnits="userSpaceOnUse"><feOffset result="offset" dy="5" in="SourceAlpha"/><feGaussianBlur result="blur" stdDeviation="6.708"/><feFlood result="flood" flood-color="#97afe3" flood-opacity=".1"/><feComposite result="composite" operator="in" in2="blur"/><feBlend result="blend" in="SourceGraphic"/></filter><filter id="filter-6" x="250" y="445" width="122" height="106" filterUnits="userSpaceOnUse"><feOffset result="offset" dy="5" in="SourceAlpha"/><feGaussianBlur result="blur" stdDeviation="6.708"/><feFlood result="flood" flood-color="#97afe3" flood-opacity=".1"/><feComposite result="composite" operator="in" in2="blur"/><feBlend result="blend" in="SourceGraphic"/></filter><filter id="filter-7" x="217" y="437" width="139" height="114" filterUnits="userSpaceOnUse"><feOffset result="offset" dy="5" in="SourceAlpha"/><feGaussianBlur result="blur" stdDeviation="6.708"/><feFlood result="flood" flood-color="#97afe3" flood-opacity=".1"/><feComposite result="composite" operator="in" in2="blur"/><feBlend result="blend" in="SourceGraphic"/></filter><filter id="filter-8" x="1127" y="535" width="158" height="124" filterUnits="userSpaceOnUse"><feOffset result="offset" dy="5" in="SourceAlpha"/><feGaussianBlur result="blur" stdDeviation="6.708"/><feFlood result="flood" flood-color="#97afe3" flood-opacity=".1"/><feComposite result="composite" operator="in" in2="blur"/><feBlend result="blend" in="SourceGraphic"/></filter><filter id="filter-9" x="1114" y="506" width="137" height="114" filterUnits="userSpaceOnUse"><feOffset result="offset" dy="5" in="SourceAlpha"/><feGaussianBlur result="blur" stdDeviation="6.708"/><feFlood result="flood" flood-color="#97afe3" flood-opacity=".1"/><feComposite result="composite" operator="in" in2="blur"/><feBlend result="blend" in="SourceGraphic"/></filter><filter id="filter-10" x="1041" y="518" width="193" height="141" filterUnits="userSpaceOnUse"><feOffset result="offset" dy="5" in="SourceAlpha"/><feGaussianBlur result="blur" stdDeviation="6.708"/><feFlood result="flood" flood-color="#97afe3" flood-opacity=".1"/><feComposite result="composite" operator="in" in2="blur"/><feBlend result="blend" in="SourceGraphic"/></filter><filter id="filter-11" x="1180" y="94" width="167" height="128" filterUnits="userSpaceOnUse"><feOffset result="offset" dy="5" in="SourceAlpha"/><feGaussianBlur result="blur" stdDeviation="6.708"/><feFlood result="flood" flood-color="#97afe3" flood-opacity=".1"/><feComposite result="composite" operator="in" in2="blur"/><feBlend result="blend" in="SourceGraphic"/></filter><filter id="filter-12" x="1213" y="127" width="134" height="112" filterUnits="userSpaceOnUse"><feOffset result="offset" dy="5" in="SourceAlpha"/><feGaussianBlur result="blur" stdDeviation="6.708"/><feFlood result="flood" flood-color="#97afe3" flood-opacity=".1"/><feComposite result="composite" operator="in" in2="blur"/><feBlend result="blend" in="SourceGraphic"/></filter><filter id="filter-13" x="209" y="133" width="134" height="112" filterUnits="userSpaceOnUse"><feOffset result="offset" dy="5" in="SourceAlpha"/><feGaussianBlur result="blur" stdDeviation="6.708"/><feFlood result="flood" flood-color="#97afe3" flood-opacity=".1"/><feComposite result="composite" operator="in" in2="blur"/><feBlend result="blend" in="SourceGraphic"/></filter><filter id="filter-14" x="-44" y="217" width="164" height="165" filterUnits="userSpaceOnUse"><feOffset result="offset" dy="5" in="SourceAlpha"/><feGaussianBlur result="blur" stdDeviation="6.708"/><feFlood result="flood" flood-color="#97afe3" flood-opacity=".1"/><feComposite result="composite" operator="in" in2="blur"/><feBlend result="blend" in="SourceGraphic"/></filter><filter id="filter-15" x="263" y="427" width="109" height="100" filterUnits="userSpaceOnUse"><feOffset result="offset" dy="5" in="SourceAlpha"/><feGaussianBlur result="blur" stdDeviation="6.708"/><feFlood result="flood" flood-color="#97afe3" flood-opacity=".1"/><feComposite result="composite" operator="in" in2="blur"/><feBlend result="blend" in="SourceGraphic"/></filter><filter id="filter-16" x="1164" y="78" width="120" height="105" filterUnits="userSpaceOnUse"><feOffset result="offset" dy="5" in="SourceAlpha"/><feGaussianBlur result="blur" stdDeviation="6.708"/><feFlood result="flood" flood-color="#97afe3" flood-opacity=".1"/><feComposite result="composite" operator="in" in2="blur"/><feBlend result="blend" in="SourceGraphic"/></filter><filter id="filter-17" x="494" y="475" width="44" height="44" filterUnits="userSpaceOnUse"><feOffset result="offset" in="SourceAlpha"/><feGaussianBlur result="blur" stdDeviation="3.873"/><feFlood result="flood" flood-color="#5283ff" flood-opacity=".25"/><feComposite result="composite" operator="in" in2="blur"/><feBlend result="blend" in="SourceGraphic"/></filter><linearGradient id="linear-gradient" x1="720" y1="2" x2="720" y2="572" gradientUnits="userSpaceOnUse"><stop offset="NaN" stop-color="#f4f7ff"/><stop offset="Infinity" stop-color="#f1f5ff"/></linearGradient><linearGradient id="linear-gradient-2" x1="720.5" y1="650" x2="720.5" y2="303" gradientUnits="userSpaceOnUse"><stop offset="NaN" stop-color="#4b71ff"/><stop offset="NaN" stop-color="#4b71ff" stop-opacity="0"/><stop offset="Infinity" stop-color="#6b89f8"/></linearGradient><style>.cls-26{fill:#5f82ff}</style></defs><path id="Rectangle" fill="url(#linear-gradient)" d="M0 2h1440v570H0z"/><path id="Ellipse" d="M1384 542c0-30.376 24.85-55 55.5-55v55H1384z" transform="translate(0 -78)" filter="url(#filter)" fill-rule="evenodd" fill="#fff"/><g id="text_and_illustration" data-name="text and illustration"><g id="chart"><path id="Vector" d="M0 529.51c202.7 0 347.472-34.877 480.333-32.753 309.407 4.948 163.306-142.075 480.334-142.075C1305.86 354.682 1223.24 225 1441 225" stroke-width="3" stroke="#5f82ff" fill="none" fill-rule="evenodd"/><path id="Vector-2" data-name="Vector" d="M0 607.51c202.7 0 347.472-34.877 480.333-32.753 309.407 4.948 163.305-142.075 480.334-142.075C1305.86 432.682 1223.24 303 1441 303v347H0v-42.49z" transform="translate(0 -78)" opacity=".4" fill="url(#linear-gradient-2)" fill-rule="evenodd"/><g id="lines_and_circles_on_chart" data-name="lines and circles on chart"><g fill="#fff" filter="url(#filter-2)"><circle id="Ellipse_2.2" data-name="Ellipse 2.2" cx="924.5" cy="355.5" r="7.5" stroke="inherit" filter="none" fill="inherit" stroke-width="2"/></g><use xlink:href="#Ellipse_2.2" stroke="#5e80fe" filter="none" fill="none"/><g fill="#fff" filter="url(#filter-3)"><circle id="Ellipse_2.1" data-name="Ellipse 2.1" cx="1332.5" cy="241.5" r="7.5" stroke="inherit" filter="none" fill="inherit" stroke-width="2"/></g><use xlink:href="#Ellipse_2.1" stroke="#5e80fe" filter="none" fill="none"/><g id="Group"><g fill="#fff" filter="url(#filter-4)"><circle id="circle" cx="107.5" cy="526.5" r="7.5" stroke="inherit" filter="none" fill="inherit" stroke-width="2"/></g><use xlink:href="#circle" stroke="#5e80fe" filter="none" fill="none"/></g></g></g><g id="clouds" fill-rule="evenodd" fill="#fff"><path id="Ellipse-2" data-name="Ellipse" d="M253 490.429a11.723 11.723 0 1123.441 0H253z" transform="translate(0 -78)" filter="url(#filter-5)"/><path id="Ellipse-3" data-name="Ellipse" d="M294.366 501A16.319 16.319 0 11327 501h-32.634z" transform="translate(0 -78)" filter="url(#filter-6)"/><path id="Ellipse-4" data-name="Ellipse" d="M261.273 501a24.82 24.82 0 0149.64 0h-49.64z" transform="translate(0 -78)" filter="url(#filter-7)"/><g id="Group-2" data-name="Group"><path id="Ellipse-5" data-name="Ellipse" d="M1171 609c0-19.076 15.23-34.541 34.01-34.541s34.01 15.465 34.01 34.541H1171z" transform="translate(0 -78)" filter="url(#filter-8)"/><path id="Ellipse-6" data-name="Ellipse" d="M1158 569.081a23.688 23.688 0 1147.37 0H1158z" transform="translate(0 -78)" filter="url(#filter-9)"/><path id="Ellipse-7" data-name="Ellipse" d="M1085 609a51.735 51.735 0 11103.47 0H1085z" transform="translate(0 -78)" filter="url(#filter-10)"/></g><path id="Ellipse-8" data-name="Ellipse" d="M1224 172a38.905 38.905 0 1177.81 0H1224z" transform="translate(0 -78)" filter="url(#filter-11)"/><path id="Ellipse-9" data-name="Ellipse" d="M1257 189a22.505 22.505 0 1145 0h-45z" transform="translate(0 -78)" filter="url(#filter-12)"/><path id="Ellipse-10" data-name="Ellipse" d="M253 195a22.505 22.505 0 1145 0h-45z" transform="translate(0 -78)" filter="url(#filter-13)"/><path id="Ellipse-11" data-name="Ellipse" d="M.5 256c41.145 0 74.5 34.026 74.5 76H.5v-76z" transform="translate(0 -78)" filter="url(#filter-14)"/><path id="Ellipse-12" data-name="Ellipse" d="M307.224 476.182a9.892 9.892 0 1119.776 0h-19.776z" transform="translate(0 -78)" filter="url(#filter-15)"/><path id="Ellipse-13" data-name="Ellipse" d="M1208 133a15.508 15.508 0 1131 0h-31z" transform="translate(0 -78)" filter="url(#filter-16)"/></g></g><path id="Line" d="M0 3h0z" stroke="#d8e3fe" stroke-width="1" fill="none" fill-rule="evenodd"/><g id="one_of_stats" data-name="one of stats"><g fill="#fff" filter="url(#filter-17)"><circle id="Ellipse_2.3" data-name="Ellipse 2.3" cx="515.5" cy="496.5" r="7.5" stroke="inherit" filter="none" fill="inherit" stroke-width="2"/></g><use xlink:href="#Ellipse_2.3" stroke="#5e80fe" filter="none" fill="none"/><path id="Union" d="M470 407h92v63.26h-92V407zm46 70.266l-4.973-7.354h9.946z" stroke-width="1" stroke="#d8e0f7" fill-rule="evenodd" fill="#fff"/><g id="Group-3" data-name="Group"><path id="Ellipse-14" data-name="Ellipse" d="M499 440.25A17.189 17.189 0 01516.128 423a17 17 0 015.011.75" stroke-width="4" stroke="#5f82ff" fill="none" fill-rule="evenodd"/><path id="Subtract" d="M519.813 521.962a5.185 5.185 0 01-7.372 0 5.277 5.277 0 010-7.424c2.036-2.051 16.346-10.538 17.091-9.788s-7.683 15.162-9.719 17.212zm-3.686-2.212a1.5 1.5 0 111.49-1.5 1.494 1.494 0 01-1.49 1.5z" transform="translate(0 -78)" fill="#5f82ff" fill-rule="evenodd"/><circle class="cls-26" cx="501.235" cy="449.25" r="1.484"/><circle id="Ellipse_2.1-2" data-name="Ellipse 2.1" class="cls-26" cx="507.188" cy="455.25" r="1.5"/><circle id="Ellipse_2.2-2" data-name="Ellipse 2.2" class="cls-26" cx="516.125" cy="457.5" r="1.5"/><circle id="Ellipse_2.3-2" data-name="Ellipse 2.3" class="cls-26" cx="525.063" cy="455.25" r="1.5"/><circle id="Ellipse_2.4" data-name="Ellipse 2.4" class="cls-26" cx="530.281" cy="449.25" r="1.5"/><circle id="Ellipse_2.5" data-name="Ellipse 2.5" class="cls-26" cx="532.515" cy="440.25" r="1.485"/></g></g></svg>